<svg xmlns="http://www.w3.org/2000/svg" viewBox="0 0 324.51 209.63"><defs><style>.cls-1,.cls-2{fill:#1890ff;}.cls-2{font-size:150.72px;font-family:IRANSans;}</style></defs><g id="Layer_2" data-name="Layer 2"><g id="Layer_1-2" data-name="Layer 1"><path class="cls-1" d="M109.34,28.64Q93.05,14,64.42,14H0V188.67H23V120.3H56.05V101.45a29.05,29.05,0,0,0,4.57,0V120.3h3.59q29.58,0,45.51-13.73t15.92-39.15Q125.64,43.27,109.34,28.64ZM68.62,32.29a2.29,2.29,0,1,1,4.57,0V52.4H68.62Zm-25.14,0a2.29,2.29,0,1,1,4.57,0V52.4H43.48Zm44.8,27H84.62V73a26.29,26.29,0,1,1-52.57,0V59.26H28.39V54.69H88.28Z"/><text class="cls-2" transform="translate(125.69 122.34)">iriz</text><path class="cls-1" d="M62.08,149.12q1.2,3.25,2,5.28a33.32,33.32,0,0,0,1.34,3.15,4.89,4.89,0,0,0,1.07,1.51,1.78,1.78,0,0,0,1.12.39h.66v10.33h-.55c-.31,0-.67,0-1.07-.05a5.83,5.83,0,0,1-1.51-.42A21.48,21.48,0,0,1,62.85,175a28.16,28.16,0,0,1-3.77,5.11,36.86,36.86,0,0,1-5,4.49,45.71,45.71,0,0,1-6,3.76l-6.31-8.14c1.9-1,3.7-2.11,5.4-3.26a35.75,35.75,0,0,0,4.57-3.63,21,21,0,0,0,3.32-4,11.05,11.05,0,0,0,1.63-4.42c-.26-.91-.52-1.76-.77-2.55s-.53-1.62-.85-2.48-.67-1.8-1.08-2.81-.9-2.21-1.47-3.56Zm-5.37-4.62-5.79-5.79,5.79-5.79,5.79,5.79Z"/><path class="cls-1" d="M91.79,159.45v10.33H67.09V159.45Z"/><path class="cls-1" d="M115.45,159.45v10.33H90.75V159.45Z"/><path class="cls-1" d="M139.11,159.45v10.33h-24.7V159.45Z"/><path class="cls-1" d="M162.77,159.45v10.33h-24.7V159.45Z"/><path class="cls-1" d="M161.73,159.45H167c.41,0,.89,0,1.43,0s1.09-.09,1.66-.17,1.12-.18,1.67-.31a9.23,9.23,0,0,0,1.46-.49,3.72,3.72,0,0,0,1-.65,1.14,1.14,0,0,0,.39-.86,5.07,5.07,0,0,0-.43-1.66q-.44-1.11-1.11-2.55c-.45-1-.95-2-1.48-3.1l-1.6-3.23,9.34-4.62c.53,1.2,1,2.45,1.53,3.76s.93,2.61,1.32,3.91a38.43,38.43,0,0,1,.92,3.86,19.25,19.25,0,0,1,.35,3.58,12.57,12.57,0,0,1-1.25,5.85,11.08,11.08,0,0,1-3.42,4,14.94,14.94,0,0,1-5.09,2.31,25.93,25.93,0,0,1-6.31.74h-5.68Zm10.43,16.93-4.9,4.9-5.06-5,5-5,4.95,5,4.91-4.9,5.06,5-5,5Z"/><path class="cls-1" d="M203.7,149.12q1.2,3.25,2,5.28a33.32,33.32,0,0,0,1.34,3.15,4.89,4.89,0,0,0,1.07,1.51,1.78,1.78,0,0,0,1.13.39h.65v10.33h-.55c-.31,0-.67,0-1.07-.05a5.94,5.94,0,0,1-1.51-.42,21.14,21.14,0,0,1-2.26,5.66,27.7,27.7,0,0,1-3.77,5.11,36.86,36.86,0,0,1-5,4.49,45.71,45.71,0,0,1-5.95,3.76l-6.31-8.14c1.9-1,3.7-2.11,5.4-3.26a35.07,35.07,0,0,0,4.57-3.63,20.68,20.68,0,0,0,3.32-4,10.9,10.9,0,0,0,1.63-4.42c-.26-.91-.51-1.76-.77-2.55s-.53-1.62-.84-2.48-.68-1.8-1.09-2.81-.9-2.21-1.47-3.56Z"/><path class="cls-1" d="M233.49,159.45v10.33h-24.7V159.45Z"/><path class="cls-1" d="M257.15,159.45v10.33h-24.7V159.45Z"/><path class="cls-1" d="M280.81,159.45v10.33h-24.7V159.45Z"/><path class="cls-1" d="M303,159.45v10.33h-.58a15.1,15.1,0,0,1-2.48-.21,13.71,13.71,0,0,1-2.37-.61,9.73,9.73,0,0,1-2-1,4.82,4.82,0,0,1-1.4-1.32,6.22,6.22,0,0,1-1.95,1.42,14.61,14.61,0,0,1-2.69,1,22.76,22.76,0,0,1-3.21.56,33.32,33.32,0,0,1-3.47.18h-3.1V159.45h3.1c1.11,0,2.08,0,2.91-.08a7.34,7.34,0,0,0,2.09-.39,2.77,2.77,0,0,0,1.29-.91,3.45,3.45,0,0,0,.56-1.65,10.69,10.69,0,0,0-.09-2.59c-.14-1-.37-2.28-.68-3.75l9.29-2.29c.15.66.31,1.45.45,2.36s.28,1.85.38,2.82a27.37,27.37,0,0,1,.18,2.81,12.09,12.09,0,0,1-.13,2.31,1.72,1.72,0,0,0,.7.8,3.4,3.4,0,0,0,.95.39,4.75,4.75,0,0,0,1,.14l.74,0ZM290.2,176.38l-4.9,4.9-5.06-5,5-5,4.95,5,4.91-4.9,5.06,5-5,5Z"/><path class="cls-1" d="M302,159.45h5.27c.42,0,.9,0,1.44,0s1.09-.09,1.65-.17,1.13-.18,1.67-.31a8.9,8.9,0,0,0,1.46-.49,4,4,0,0,0,1-.65,1.14,1.14,0,0,0,.39-.86,5.34,5.34,0,0,0-.43-1.66q-.44-1.11-1.11-2.55c-.46-1-.95-2-1.49-3.1l-1.59-3.23,9.34-4.62c.52,1.2,1,2.45,1.52,3.76s.94,2.61,1.32,3.91.69,2.59.93,3.86a20.14,20.14,0,0,1,.35,3.58,12.7,12.7,0,0,1-1.25,5.85,11.27,11.27,0,0,1-3.42,4A14.91,14.91,0,0,1,314,169a25.91,25.91,0,0,1-6.3.74H302Zm10.52,17.87,4.9-4.9,5.06,5-5,5-4.95-4.95-4.91,4.9-5.06-5,5-5Zm-4.67,7.62,4.64-4.65,4.67,4.67-4.64,4.65Z"/></g></g></svg>